<mxfile host="app.diagrams.net" modified="2023-10-05T12:31:12.908Z" agent="Mozilla/5.0 (Windows NT 10.0; Win64; x64) AppleWebKit/537.36 (KHTML, like Gecko) Chrome/116.0.0.0 Safari/537.36" etag="m47_FgPs5xk4SN8DTLXG" version="22.0.2" type="onedrive">
  <diagram name="Page-1" id="xtuQ03nn5ep8AlURHOOK">
    <mxGraphModel grid="1" page="1" gridSize="10" guides="1" tooltips="1" connect="1" arrows="1" fold="1" pageScale="1" pageWidth="827" pageHeight="1169" math="0" shadow="0">
      <root>
        <mxCell id="0" />
        <mxCell id="1" parent="0" />
        <mxCell id="5XCWAQJgQUW2MDC1fXyG-1" value="University" style="whiteSpace=wrap;html=1;" vertex="1" parent="1">
          <mxGeometry x="320" y="50" width="120" height="30" as="geometry" />
        </mxCell>
        <mxCell id="5XCWAQJgQUW2MDC1fXyG-2" value="Room" style="whiteSpace=wrap;html=1;" vertex="1" parent="1">
          <mxGeometry x="80" y="190" width="120" height="30" as="geometry" />
        </mxCell>
        <mxCell id="5XCWAQJgQUW2MDC1fXyG-3" value="Department" style="whiteSpace=wrap;html=1;" vertex="1" parent="1">
          <mxGeometry x="570" y="190" width="120" height="30" as="geometry" />
        </mxCell>
        <mxCell id="5XCWAQJgQUW2MDC1fXyG-5" value="Office" style="whiteSpace=wrap;html=1;" vertex="1" parent="1">
          <mxGeometry x="220" y="300" width="120" height="30" as="geometry" />
        </mxCell>
        <mxCell id="5XCWAQJgQUW2MDC1fXyG-36" style="edgeStyle=none;rounded=0;orthogonalLoop=1;jettySize=auto;html=1;entryX=0.25;entryY=1;entryDx=0;entryDy=0;" edge="1" parent="1" source="5XCWAQJgQUW2MDC1fXyG-7" target="5XCWAQJgQUW2MDC1fXyG-2">
          <mxGeometry relative="1" as="geometry" />
        </mxCell>
        <mxCell id="5XCWAQJgQUW2MDC1fXyG-7" value="Classroom" style="whiteSpace=wrap;html=1;" vertex="1" parent="1">
          <mxGeometry x="10" y="300" width="120" height="30" as="geometry" />
        </mxCell>
        <mxCell id="5XCWAQJgQUW2MDC1fXyG-8" value="Person" style="whiteSpace=wrap;html=1;" vertex="1" parent="1">
          <mxGeometry x="360" y="370" width="120" height="30" as="geometry" />
        </mxCell>
        <mxCell id="5XCWAQJgQUW2MDC1fXyG-10" value="Employee" style="whiteSpace=wrap;html=1;" vertex="1" parent="1">
          <mxGeometry x="220" y="430" width="120" height="30" as="geometry" />
        </mxCell>
        <mxCell id="5XCWAQJgQUW2MDC1fXyG-11" value="Professor" style="whiteSpace=wrap;html=1;" vertex="1" parent="1">
          <mxGeometry x="570" y="430" width="120" height="30" as="geometry" />
        </mxCell>
        <mxCell id="5XCWAQJgQUW2MDC1fXyG-12" value="Full Professor" style="whiteSpace=wrap;html=1;" vertex="1" parent="1">
          <mxGeometry x="360" y="500" width="120" height="30" as="geometry" />
        </mxCell>
        <mxCell id="5XCWAQJgQUW2MDC1fXyG-13" value="Associate" style="whiteSpace=wrap;html=1;" vertex="1" parent="1">
          <mxGeometry x="510" y="500" width="120" height="30" as="geometry" />
        </mxCell>
        <mxCell id="5XCWAQJgQUW2MDC1fXyG-14" value="Assistant" style="whiteSpace=wrap;html=1;" vertex="1" parent="1">
          <mxGeometry x="650" y="500" width="120" height="30" as="geometry" />
        </mxCell>
        <mxCell id="5XCWAQJgQUW2MDC1fXyG-18" value="" style="endArrow=none;html=1;rounded=0;entryX=0.5;entryY=1;entryDx=0;entryDy=0;exitX=0.5;exitY=0;exitDx=0;exitDy=0;exitPerimeter=0;" edge="1" parent="1" source="5XCWAQJgQUW2MDC1fXyG-11" target="5XCWAQJgQUW2MDC1fXyG-3">
          <mxGeometry width="50" height="50" relative="1" as="geometry">
            <mxPoint x="620" y="430" as="sourcePoint" />
            <mxPoint x="640" y="300" as="targetPoint" />
          </mxGeometry>
        </mxCell>
        <mxCell id="5XCWAQJgQUW2MDC1fXyG-19" value="" style="endArrow=classic;html=1;rounded=0;entryX=0;entryY=0.5;entryDx=0;entryDy=0;exitX=0.5;exitY=0;exitDx=0;exitDy=0;" edge="1" parent="1" source="5XCWAQJgQUW2MDC1fXyG-12" target="5XCWAQJgQUW2MDC1fXyG-11">
          <mxGeometry width="50" height="50" relative="1" as="geometry">
            <mxPoint x="420" y="510" as="sourcePoint" />
            <mxPoint x="470" y="460" as="targetPoint" />
          </mxGeometry>
        </mxCell>
        <mxCell id="5XCWAQJgQUW2MDC1fXyG-20" value="" style="edgeStyle=none;orthogonalLoop=1;jettySize=auto;html=1;rounded=0;entryX=0.5;entryY=1;entryDx=0;entryDy=0;" edge="1" parent="1" target="5XCWAQJgQUW2MDC1fXyG-11">
          <mxGeometry width="100" relative="1" as="geometry">
            <mxPoint x="530" y="500" as="sourcePoint" />
            <mxPoint x="630" y="500" as="targetPoint" />
            <Array as="points" />
          </mxGeometry>
        </mxCell>
        <mxCell id="5XCWAQJgQUW2MDC1fXyG-21" value="" style="edgeStyle=none;orthogonalLoop=1;jettySize=auto;html=1;rounded=0;entryX=0.75;entryY=1;entryDx=0;entryDy=0;exitX=0.75;exitY=0;exitDx=0;exitDy=0;" edge="1" parent="1" source="5XCWAQJgQUW2MDC1fXyG-14" target="5XCWAQJgQUW2MDC1fXyG-11">
          <mxGeometry width="100" relative="1" as="geometry">
            <mxPoint x="670" y="480" as="sourcePoint" />
            <mxPoint x="770" y="480" as="targetPoint" />
            <Array as="points" />
          </mxGeometry>
        </mxCell>
        <mxCell id="5XCWAQJgQUW2MDC1fXyG-22" value="" style="orthogonalLoop=1;jettySize=auto;html=1;rounded=0;entryX=0.811;entryY=1.211;entryDx=0;entryDy=0;entryPerimeter=0;exitX=0.139;exitY=0.011;exitDx=0;exitDy=0;exitPerimeter=0;" edge="1" parent="1" source="5XCWAQJgQUW2MDC1fXyG-11" target="5XCWAQJgQUW2MDC1fXyG-8">
          <mxGeometry width="100" relative="1" as="geometry">
            <mxPoint x="540" y="420" as="sourcePoint" />
            <mxPoint x="640" y="420" as="targetPoint" />
          </mxGeometry>
        </mxCell>
        <mxCell id="5XCWAQJgQUW2MDC1fXyG-23" value="" style="edgeStyle=none;orthogonalLoop=1;jettySize=auto;html=1;rounded=0;entryX=0;entryY=0.75;entryDx=0;entryDy=0;exitX=0.189;exitY=-0.078;exitDx=0;exitDy=0;exitPerimeter=0;" edge="1" parent="1" source="5XCWAQJgQUW2MDC1fXyG-10" target="5XCWAQJgQUW2MDC1fXyG-8">
          <mxGeometry width="100" relative="1" as="geometry">
            <mxPoint x="250" y="420" as="sourcePoint" />
            <mxPoint x="350" y="420" as="targetPoint" />
            <Array as="points" />
          </mxGeometry>
        </mxCell>
        <mxCell id="5XCWAQJgQUW2MDC1fXyG-35" value="" style="endArrow=none;html=1;rounded=0;entryX=1;entryY=0.5;entryDx=0;entryDy=0;" edge="1" parent="1" target="5XCWAQJgQUW2MDC1fXyG-5">
          <mxGeometry width="50" height="50" relative="1" as="geometry">
            <mxPoint x="420" y="370" as="sourcePoint" />
            <mxPoint x="350" y="320" as="targetPoint" />
            <Array as="points">
              <mxPoint x="420" y="315" />
            </Array>
          </mxGeometry>
        </mxCell>
        <mxCell id="5XCWAQJgQUW2MDC1fXyG-37" style="edgeStyle=none;rounded=0;orthogonalLoop=1;jettySize=auto;html=1;entryX=0.844;entryY=1.144;entryDx=0;entryDy=0;entryPerimeter=0;" edge="1" parent="1" source="5XCWAQJgQUW2MDC1fXyG-5" target="5XCWAQJgQUW2MDC1fXyG-2">
          <mxGeometry relative="1" as="geometry" />
        </mxCell>
        <mxCell id="5XCWAQJgQUW2MDC1fXyG-46" value="" style="endArrow=diamondThin;endFill=0;endSize=24;html=1;rounded=0;exitX=0.5;exitY=0;exitDx=0;exitDy=0;" edge="1" parent="1" source="5XCWAQJgQUW2MDC1fXyG-2">
          <mxGeometry width="160" relative="1" as="geometry">
            <mxPoint x="160" y="70" as="sourcePoint" />
            <mxPoint x="320" y="70" as="targetPoint" />
          </mxGeometry>
        </mxCell>
        <mxCell id="5XCWAQJgQUW2MDC1fXyG-47" value="" style="endArrow=diamondThin;endFill=0;endSize=24;html=1;rounded=0;entryX=1;entryY=0.25;entryDx=0;entryDy=0;exitX=0.5;exitY=0;exitDx=0;exitDy=0;" edge="1" parent="1" source="5XCWAQJgQUW2MDC1fXyG-3" target="5XCWAQJgQUW2MDC1fXyG-1">
          <mxGeometry width="160" relative="1" as="geometry">
            <mxPoint x="620" y="180" as="sourcePoint" />
            <mxPoint x="730" y="160" as="targetPoint" />
          </mxGeometry>
        </mxCell>
        <mxCell id="5XCWAQJgQUW2MDC1fXyG-49" value="1" style="text;html=1;align=center;verticalAlign=middle;resizable=0;points=[];autosize=1;strokeColor=none;fillColor=none;" vertex="1" parent="1">
          <mxGeometry x="295" y="78" width="30" height="30" as="geometry" />
        </mxCell>
        <mxCell id="5XCWAQJgQUW2MDC1fXyG-50" value="1..*" style="text;html=1;align=center;verticalAlign=middle;resizable=0;points=[];autosize=1;strokeColor=none;fillColor=none;" vertex="1" parent="1">
          <mxGeometry x="150" y="168" width="40" height="30" as="geometry" />
        </mxCell>
        <mxCell id="5XCWAQJgQUW2MDC1fXyG-51" value="1" style="text;html=1;align=center;verticalAlign=middle;resizable=0;points=[];autosize=1;strokeColor=none;fillColor=none;" vertex="1" parent="1">
          <mxGeometry x="465" y="48" width="30" height="30" as="geometry" />
        </mxCell>
        <mxCell id="5XCWAQJgQUW2MDC1fXyG-52" value="1..*" style="text;html=1;align=center;verticalAlign=middle;resizable=0;points=[];autosize=1;strokeColor=none;fillColor=none;" vertex="1" parent="1">
          <mxGeometry x="620" y="168" width="40" height="30" as="geometry" />
        </mxCell>
        <mxCell id="5XCWAQJgQUW2MDC1fXyG-53" value="1" style="text;html=1;align=center;verticalAlign=middle;resizable=0;points=[];autosize=1;strokeColor=none;fillColor=none;" vertex="1" parent="1">
          <mxGeometry x="605" y="218" width="30" height="30" as="geometry" />
        </mxCell>
        <mxCell id="5XCWAQJgQUW2MDC1fXyG-54" value="*" style="text;html=1;align=center;verticalAlign=middle;resizable=0;points=[];autosize=1;strokeColor=none;fillColor=none;" vertex="1" parent="1">
          <mxGeometry x="605" y="398" width="30" height="30" as="geometry" />
        </mxCell>
        <mxCell id="5XCWAQJgQUW2MDC1fXyG-55" value="is enrolled" style="text;html=1;align=center;verticalAlign=middle;resizable=0;points=[];autosize=1;strokeColor=none;fillColor=none;" vertex="1" parent="1">
          <mxGeometry x="630" y="288" width="80" height="30" as="geometry" />
        </mxCell>
        <mxCell id="5XCWAQJgQUW2MDC1fXyG-56" value="1" style="text;html=1;align=center;verticalAlign=middle;resizable=0;points=[];autosize=1;strokeColor=none;fillColor=none;" vertex="1" parent="1">
          <mxGeometry x="330" y="288" width="30" height="30" as="geometry" />
        </mxCell>
        <mxCell id="5XCWAQJgQUW2MDC1fXyG-57" value="*" style="text;html=1;align=center;verticalAlign=middle;resizable=0;points=[];autosize=1;strokeColor=none;fillColor=none;" vertex="1" parent="1">
          <mxGeometry x="415" y="348" width="30" height="30" as="geometry" />
        </mxCell>
        <mxCell id="5XCWAQJgQUW2MDC1fXyG-58" value="works in" style="text;html=1;align=center;verticalAlign=middle;resizable=0;points=[];autosize=1;strokeColor=none;fillColor=none;" vertex="1" parent="1">
          <mxGeometry x="395" y="288" width="70" height="30" as="geometry" />
        </mxCell>
        <mxCell id="xl4VK6q--ZhdF6BjOBdW-2" value="&lt;h1&gt;&lt;u style=&quot;&quot;&gt;University&lt;/u&gt;&lt;/h1&gt;" style="text;html=1;strokeColor=none;fillColor=none;spacing=5;spacingTop=-20;whiteSpace=wrap;overflow=hidden;rounded=0;" vertex="1" parent="1">
          <mxGeometry x="285" y="-80" width="190" height="120" as="geometry" />
        </mxCell>
        <mxCell id="xl4VK6q--ZhdF6BjOBdW-3" value="&lt;h1&gt;&lt;u&gt;Movie-shop&lt;/u&gt;&lt;/h1&gt;" style="text;html=1;strokeColor=none;fillColor=none;spacing=5;spacingTop=-20;whiteSpace=wrap;overflow=hidden;rounded=0;" vertex="1" parent="1">
          <mxGeometry x="290" y="560" width="190" height="120" as="geometry" />
        </mxCell>
        <mxCell id="xl4VK6q--ZhdF6BjOBdW-7" value="&lt;p style=&quot;margin:0px;margin-top:4px;text-align:center;&quot;&gt;&lt;b&gt;subscribe&lt;/b&gt;&lt;/p&gt;&lt;hr size=&quot;1&quot;&gt;&lt;p style=&quot;margin:0px;margin-left:4px;&quot;&gt;+ telefono&lt;/p&gt;&lt;p style=&quot;margin:0px;margin-left:4px;&quot;&gt;+ indirizzo&lt;/p&gt;&lt;hr size=&quot;1&quot;&gt;&lt;p style=&quot;margin:0px;margin-left:4px;&quot;&gt;&lt;br&gt;&lt;/p&gt;" style="verticalAlign=top;align=left;overflow=fill;fontSize=12;fontFamily=Helvetica;html=1;whiteSpace=wrap;" vertex="1" parent="1">
          <mxGeometry x="50" y="940" width="160" height="90" as="geometry" />
        </mxCell>
        <mxCell id="xl4VK6q--ZhdF6BjOBdW-8" value="&lt;p style=&quot;margin:0px;margin-top:4px;text-align:center;&quot;&gt;&lt;b&gt;movie-shop&lt;/b&gt;&lt;/p&gt;&lt;hr size=&quot;1&quot;&gt;&lt;p style=&quot;margin:0px;margin-left:4px;&quot;&gt;&lt;br&gt;&lt;/p&gt;&lt;hr size=&quot;1&quot;&gt;&lt;p style=&quot;margin:0px;margin-left:4px;&quot;&gt;+ listMovies()&lt;/p&gt;&lt;p style=&quot;margin:0px;margin-left:4px;&quot;&gt;+ order()&lt;/p&gt;&lt;p style=&quot;margin:0px;margin-left:4px;&quot;&gt;&lt;br&gt;&lt;/p&gt;" style="verticalAlign=top;align=left;overflow=fill;fontSize=12;fontFamily=Helvetica;html=1;whiteSpace=wrap;" vertex="1" parent="1">
          <mxGeometry x="475" y="712" width="160" height="100" as="geometry" />
        </mxCell>
        <mxCell id="xl4VK6q--ZhdF6BjOBdW-9" value="&lt;p style=&quot;margin:0px;margin-top:4px;text-align:center;&quot;&gt;&lt;b&gt;User&lt;/b&gt;&lt;/p&gt;&lt;hr size=&quot;1&quot;&gt;&lt;p style=&quot;margin:0px;margin-left:4px;&quot;&gt;+ nome&lt;/p&gt;&lt;p style=&quot;margin:0px;margin-left:4px;&quot;&gt;+ cognome&lt;/p&gt;&lt;hr size=&quot;1&quot;&gt;&lt;p style=&quot;margin:0px;margin-left:4px;&quot;&gt;&lt;br&gt;&lt;/p&gt;" style="verticalAlign=top;align=left;overflow=fill;fontSize=12;fontFamily=Helvetica;html=1;whiteSpace=wrap;" vertex="1" parent="1">
          <mxGeometry x="100" y="690" width="160" height="90" as="geometry" />
        </mxCell>
        <mxCell id="xl4VK6q--ZhdF6BjOBdW-10" value="&lt;p style=&quot;margin:0px;margin-top:4px;text-align:center;&quot;&gt;&lt;b&gt;card&lt;/b&gt;&lt;/p&gt;&lt;hr size=&quot;1&quot;&gt;&lt;p style=&quot;margin:0px;margin-left:4px;&quot;&gt;+ credit&lt;/p&gt;&lt;p style=&quot;margin:0px;margin-left:4px;&quot;&gt;+ code&lt;/p&gt;&lt;hr size=&quot;1&quot;&gt;&lt;p style=&quot;margin:0px;margin-left:4px;&quot;&gt;&lt;br&gt;&lt;/p&gt;" style="verticalAlign=top;align=left;overflow=fill;fontSize=12;fontFamily=Helvetica;html=1;whiteSpace=wrap;" vertex="1" parent="1">
          <mxGeometry x="254" y="850" width="160" height="90" as="geometry" />
        </mxCell>
        <mxCell id="xl4VK6q--ZhdF6BjOBdW-11" value="&lt;p style=&quot;margin:0px;margin-top:4px;text-align:center;&quot;&gt;&lt;b&gt;order&lt;/b&gt;&lt;/p&gt;&lt;hr size=&quot;1&quot;&gt;&lt;p style=&quot;margin:0px;margin-left:4px;&quot;&gt;+ date&lt;/p&gt;&lt;p style=&quot;margin:0px;margin-left:4px;&quot;&gt;+ user&lt;/p&gt;&lt;hr size=&quot;1&quot;&gt;&lt;p style=&quot;margin:0px;margin-left:4px;&quot;&gt;&lt;br&gt;&lt;/p&gt;" style="verticalAlign=top;align=left;overflow=fill;fontSize=12;fontFamily=Helvetica;html=1;whiteSpace=wrap;" vertex="1" parent="1">
          <mxGeometry x="630" y="830" width="160" height="90" as="geometry" />
        </mxCell>
        <mxCell id="xl4VK6q--ZhdF6BjOBdW-12" value="&lt;p style=&quot;margin:0px;margin-top:4px;text-align:center;&quot;&gt;&lt;b&gt;movie&lt;/b&gt;&lt;/p&gt;&lt;hr size=&quot;1&quot;&gt;&lt;p style=&quot;margin:0px;margin-left:4px;&quot;&gt;+ name&lt;/p&gt;&lt;p style=&quot;margin:0px;margin-left:4px;&quot;&gt;+ type:{DVD, VHS}&lt;/p&gt;&lt;hr size=&quot;1&quot;&gt;&lt;p style=&quot;margin:0px;margin-left:4px;&quot;&gt;&lt;br&gt;&lt;/p&gt;" style="verticalAlign=top;align=left;overflow=fill;fontSize=12;fontFamily=Helvetica;html=1;whiteSpace=wrap;" vertex="1" parent="1">
          <mxGeometry x="445" y="940" width="160" height="90" as="geometry" />
        </mxCell>
        <mxCell id="xl4VK6q--ZhdF6BjOBdW-49" style="edgeStyle=none;rounded=0;orthogonalLoop=1;jettySize=auto;html=1;entryX=0;entryY=0.75;entryDx=0;entryDy=0;" edge="1" parent="1" source="xl4VK6q--ZhdF6BjOBdW-13" target="xl4VK6q--ZhdF6BjOBdW-12">
          <mxGeometry relative="1" as="geometry" />
        </mxCell>
        <mxCell id="xl4VK6q--ZhdF6BjOBdW-13" value="&lt;p style=&quot;margin:0px;margin-top:4px;text-align:center;&quot;&gt;&lt;b&gt;movie-rent&lt;/b&gt;&lt;/p&gt;&lt;hr size=&quot;1&quot;&gt;&lt;p style=&quot;margin:0px;margin-left:4px;&quot;&gt;+ stato{in,out}&lt;/p&gt;&lt;p style=&quot;margin:0px;margin-left:4px;&quot;&gt;+ data prestito&lt;/p&gt;&lt;p style=&quot;margin:0px;margin-left:4px;&quot;&gt;+ prezzo&lt;/p&gt;&lt;hr size=&quot;1&quot;&gt;&lt;p style=&quot;margin:0px;margin-left:4px;&quot;&gt;&lt;br&gt;&lt;/p&gt;" style="verticalAlign=top;align=left;overflow=fill;fontSize=12;fontFamily=Helvetica;html=1;whiteSpace=wrap;" vertex="1" parent="1">
          <mxGeometry x="265" y="1090" width="160" height="100" as="geometry" />
        </mxCell>
        <mxCell id="xl4VK6q--ZhdF6BjOBdW-50" style="edgeStyle=none;rounded=0;orthogonalLoop=1;jettySize=auto;html=1;" edge="1" parent="1" source="xl4VK6q--ZhdF6BjOBdW-14">
          <mxGeometry relative="1" as="geometry">
            <mxPoint x="610" y="1000" as="targetPoint" />
          </mxGeometry>
        </mxCell>
        <mxCell id="xl4VK6q--ZhdF6BjOBdW-14" value="&lt;p style=&quot;margin:0px;margin-top:4px;text-align:center;&quot;&gt;&lt;b&gt;movie-buy&lt;/b&gt;&lt;/p&gt;&lt;hr size=&quot;1&quot;&gt;&lt;p style=&quot;margin:0px;margin-left:4px;&quot;&gt;+ stato: {presente, da ordinare}&lt;/p&gt;&lt;p style=&quot;margin:0px;margin-left:4px;&quot;&gt;+prezzo-vendita&lt;/p&gt;&lt;hr size=&quot;1&quot;&gt;&lt;p style=&quot;margin:0px;margin-left:4px;&quot;&gt;&lt;br&gt;&lt;/p&gt;" style="verticalAlign=top;align=left;overflow=fill;fontSize=12;fontFamily=Helvetica;html=1;whiteSpace=wrap;" vertex="1" parent="1">
          <mxGeometry x="610" y="1079" width="160" height="111" as="geometry" />
        </mxCell>
        <mxCell id="xl4VK6q--ZhdF6BjOBdW-20" value="" style="endArrow=open;endFill=1;endSize=12;html=1;rounded=0;exitX=1;exitY=0.5;exitDx=0;exitDy=0;" edge="1" parent="1" source="xl4VK6q--ZhdF6BjOBdW-9">
          <mxGeometry width="160" relative="1" as="geometry">
            <mxPoint x="285" y="734.5" as="sourcePoint" />
            <mxPoint x="480" y="770" as="targetPoint" />
            <Array as="points">
              <mxPoint x="470" y="770" />
              <mxPoint x="460" y="770" />
              <mxPoint x="480" y="770" />
            </Array>
          </mxGeometry>
        </mxCell>
        <mxCell id="xl4VK6q--ZhdF6BjOBdW-28" value="" style="endArrow=open;endFill=1;endSize=12;html=1;rounded=0;entryX=0.008;entryY=0.659;entryDx=0;entryDy=0;entryPerimeter=0;" edge="1" parent="1" target="xl4VK6q--ZhdF6BjOBdW-10">
          <mxGeometry width="160" relative="1" as="geometry">
            <mxPoint x="170" y="940" as="sourcePoint" />
            <mxPoint x="325" y="939" as="targetPoint" />
          </mxGeometry>
        </mxCell>
        <mxCell id="xl4VK6q--ZhdF6BjOBdW-32" value="" style="endArrow=none;html=1;rounded=0;entryX=0;entryY=0.75;entryDx=0;entryDy=0;" edge="1" parent="1" target="xl4VK6q--ZhdF6BjOBdW-8">
          <mxGeometry width="50" height="50" relative="1" as="geometry">
            <mxPoint x="415" y="850" as="sourcePoint" />
            <mxPoint x="465" y="800" as="targetPoint" />
          </mxGeometry>
        </mxCell>
        <mxCell id="xl4VK6q--ZhdF6BjOBdW-36" value="" style="endArrow=diamondThin;endFill=0;endSize=24;html=1;rounded=0;entryX=0.46;entryY=1.027;entryDx=0;entryDy=0;entryPerimeter=0;exitX=0.656;exitY=0;exitDx=0;exitDy=0;exitPerimeter=0;" edge="1" parent="1" source="xl4VK6q--ZhdF6BjOBdW-12" target="xl4VK6q--ZhdF6BjOBdW-8">
          <mxGeometry width="160" relative="1" as="geometry">
            <mxPoint x="543" y="930" as="sourcePoint" />
            <mxPoint x="610" y="900" as="targetPoint" />
          </mxGeometry>
        </mxCell>
        <mxCell id="xl4VK6q--ZhdF6BjOBdW-37" value="" style="endArrow=open;endFill=1;endSize=12;html=1;rounded=0;entryX=0.5;entryY=0;entryDx=0;entryDy=0;exitX=0.998;exitY=0.667;exitDx=0;exitDy=0;exitPerimeter=0;" edge="1" parent="1" source="xl4VK6q--ZhdF6BjOBdW-8" target="xl4VK6q--ZhdF6BjOBdW-11">
          <mxGeometry width="160" relative="1" as="geometry">
            <mxPoint x="500" y="810" as="sourcePoint" />
            <mxPoint x="660" y="810" as="targetPoint" />
          </mxGeometry>
        </mxCell>
        <mxCell id="xl4VK6q--ZhdF6BjOBdW-46" value="" style="endArrow=none;html=1;rounded=0;exitX=0.658;exitY=-0.033;exitDx=0;exitDy=0;exitPerimeter=0;entryX=0.5;entryY=1;entryDx=0;entryDy=0;" edge="1" parent="1" source="xl4VK6q--ZhdF6BjOBdW-14" target="xl4VK6q--ZhdF6BjOBdW-11">
          <mxGeometry width="50" height="50" relative="1" as="geometry">
            <mxPoint x="680" y="980" as="sourcePoint" />
            <mxPoint x="730" y="930" as="targetPoint" />
          </mxGeometry>
        </mxCell>
        <mxCell id="xl4VK6q--ZhdF6BjOBdW-47" value="" style="endArrow=open;endFill=1;endSize=12;html=1;rounded=0;" edge="1" parent="1">
          <mxGeometry width="160" relative="1" as="geometry">
            <mxPoint x="300" y="620" as="sourcePoint" />
            <mxPoint x="460" y="620" as="targetPoint" />
          </mxGeometry>
        </mxCell>
        <mxCell id="xl4VK6q--ZhdF6BjOBdW-48" value="" style="endArrow=open;endFill=1;endSize=12;html=1;rounded=0;exitX=0.017;exitY=0.615;exitDx=0;exitDy=0;exitPerimeter=0;entryX=0.423;entryY=1.024;entryDx=0;entryDy=0;entryPerimeter=0;" edge="1" parent="1">
          <mxGeometry width="160" relative="1" as="geometry">
            <mxPoint x="99.00000000000003" y="754.3499999999999" as="sourcePoint" />
            <mxPoint x="676.6799999999998" y="1192.6640000000002" as="targetPoint" />
            <Array as="points">
              <mxPoint x="-1" y="754" />
              <mxPoint x="-1" y="1210" />
              <mxPoint x="679" y="1220" />
            </Array>
          </mxGeometry>
        </mxCell>
        <mxCell id="xl4VK6q--ZhdF6BjOBdW-51" value="*" style="text;html=1;align=center;verticalAlign=middle;resizable=0;points=[];autosize=1;strokeColor=none;fillColor=none;" vertex="1" parent="1">
          <mxGeometry x="255" y="708" width="30" height="30" as="geometry" />
        </mxCell>
        <mxCell id="xl4VK6q--ZhdF6BjOBdW-52" value="1" style="text;html=1;align=center;verticalAlign=middle;resizable=0;points=[];autosize=1;strokeColor=none;fillColor=none;" vertex="1" parent="1">
          <mxGeometry x="445" y="738" width="30" height="30" as="geometry" />
        </mxCell>
        <mxCell id="xl4VK6q--ZhdF6BjOBdW-54" value="*" style="text;html=1;align=center;verticalAlign=middle;resizable=0;points=[];autosize=1;strokeColor=none;fillColor=none;" vertex="1" parent="1">
          <mxGeometry x="690" y="800" width="30" height="30" as="geometry" />
        </mxCell>
        <mxCell id="xl4VK6q--ZhdF6BjOBdW-55" value="make" style="text;html=1;align=center;verticalAlign=middle;resizable=0;points=[];autosize=1;strokeColor=none;fillColor=none;" vertex="1" parent="1">
          <mxGeometry x="665" y="778" width="50" height="30" as="geometry" />
        </mxCell>
        <mxCell id="xl4VK6q--ZhdF6BjOBdW-56" value="1" style="text;html=1;align=center;verticalAlign=middle;resizable=0;points=[];autosize=1;strokeColor=none;fillColor=none;" vertex="1" parent="1">
          <mxGeometry x="545" y="818" width="30" height="30" as="geometry" />
        </mxCell>
        <mxCell id="xl4VK6q--ZhdF6BjOBdW-57" value="*" style="text;html=1;align=center;verticalAlign=middle;resizable=0;points=[];autosize=1;strokeColor=none;fillColor=none;" vertex="1" parent="1">
          <mxGeometry x="545" y="910" width="30" height="30" as="geometry" />
        </mxCell>
        <mxCell id="xl4VK6q--ZhdF6BjOBdW-58" value="*" style="text;html=1;align=center;verticalAlign=middle;resizable=0;points=[];autosize=1;strokeColor=none;fillColor=none;" vertex="1" parent="1">
          <mxGeometry x="705" y="918" width="30" height="30" as="geometry" />
        </mxCell>
        <mxCell id="xl4VK6q--ZhdF6BjOBdW-60" value="1..*" style="text;html=1;align=center;verticalAlign=middle;resizable=0;points=[];autosize=1;strokeColor=none;fillColor=none;" vertex="1" parent="1">
          <mxGeometry x="710" y="1054" width="40" height="30" as="geometry" />
        </mxCell>
        <mxCell id="xl4VK6q--ZhdF6BjOBdW-61" value="1 ..*" style="text;html=1;align=center;verticalAlign=middle;resizable=0;points=[];autosize=1;strokeColor=none;fillColor=none;" vertex="1" parent="1">
          <mxGeometry x="680" y="1190" width="40" height="30" as="geometry" />
        </mxCell>
        <mxCell id="xl4VK6q--ZhdF6BjOBdW-62" value="" style="endArrow=open;endFill=1;endSize=12;html=1;rounded=0;exitX=0;exitY=0.75;exitDx=0;exitDy=0;" edge="1" parent="1" source="xl4VK6q--ZhdF6BjOBdW-7">
          <mxGeometry width="160" relative="1" as="geometry">
            <mxPoint x="10" y="990" as="sourcePoint" />
            <mxPoint x="265" y="1130" as="targetPoint" />
            <Array as="points">
              <mxPoint x="10" y="1010" />
              <mxPoint x="10" y="1130" />
            </Array>
          </mxGeometry>
        </mxCell>
        <mxCell id="xl4VK6q--ZhdF6BjOBdW-64" value="1..*" style="text;html=1;align=center;verticalAlign=middle;resizable=0;points=[];autosize=1;strokeColor=none;fillColor=none;" vertex="1" parent="1">
          <mxGeometry x="214" y="1125" width="40" height="30" as="geometry" />
        </mxCell>
        <mxCell id="xl4VK6q--ZhdF6BjOBdW-65" value="*" style="text;html=1;align=center;verticalAlign=middle;resizable=0;points=[];autosize=1;strokeColor=none;fillColor=none;" vertex="1" parent="1">
          <mxGeometry x="15" y="978" width="30" height="30" as="geometry" />
        </mxCell>
        <mxCell id="xl4VK6q--ZhdF6BjOBdW-66" value="1" style="text;html=1;align=center;verticalAlign=middle;resizable=0;points=[];autosize=1;strokeColor=none;fillColor=none;" vertex="1" parent="1">
          <mxGeometry x="155" y="908" width="30" height="30" as="geometry" />
        </mxCell>
        <mxCell id="xl4VK6q--ZhdF6BjOBdW-67" value="1" style="text;html=1;align=center;verticalAlign=middle;resizable=0;points=[];autosize=1;strokeColor=none;fillColor=none;" vertex="1" parent="1">
          <mxGeometry x="225" y="908" width="30" height="30" as="geometry" />
        </mxCell>
        <mxCell id="xl4VK6q--ZhdF6BjOBdW-68" value="*" style="text;html=1;align=center;verticalAlign=middle;resizable=0;points=[];autosize=1;strokeColor=none;fillColor=none;" vertex="1" parent="1">
          <mxGeometry x="414" y="840" width="30" height="30" as="geometry" />
        </mxCell>
        <mxCell id="xl4VK6q--ZhdF6BjOBdW-69" value="1" style="text;html=1;align=center;verticalAlign=middle;resizable=0;points=[];autosize=1;strokeColor=none;fillColor=none;" vertex="1" parent="1">
          <mxGeometry x="455" y="788" width="30" height="30" as="geometry" />
        </mxCell>
        <mxCell id="xl4VK6q--ZhdF6BjOBdW-71" value="make" style="text;html=1;align=center;verticalAlign=middle;resizable=0;points=[];autosize=1;strokeColor=none;fillColor=none;" vertex="1" parent="1">
          <mxGeometry x="395" y="788" width="50" height="30" as="geometry" />
        </mxCell>
        <mxCell id="xl4VK6q--ZhdF6BjOBdW-72" value="use" style="text;html=1;align=center;verticalAlign=middle;resizable=0;points=[];autosize=1;strokeColor=none;fillColor=none;" vertex="1" parent="1">
          <mxGeometry x="370" y="718" width="40" height="30" as="geometry" />
        </mxCell>
        <mxCell id="xl4VK6q--ZhdF6BjOBdW-73" value="*" style="text;html=1;align=center;verticalAlign=middle;resizable=0;points=[];autosize=1;strokeColor=none;fillColor=none;" vertex="1" parent="1">
          <mxGeometry x="-30" y="770" width="30" height="30" as="geometry" />
        </mxCell>
        <mxCell id="xl4VK6q--ZhdF6BjOBdW-74" value="related to" style="text;html=1;align=center;verticalAlign=middle;resizable=0;points=[];autosize=1;strokeColor=none;fillColor=none;" vertex="1" parent="1">
          <mxGeometry x="715" y="978" width="70" height="30" as="geometry" />
        </mxCell>
      </root>
    </mxGraphModel>
  </diagram>
</mxfile>
